<mxfile host="app.diagrams.net" agent="Mozilla/5.0 (Windows NT 10.0; Win64; x64) AppleWebKit/537.36 (KHTML, like Gecko) Chrome/135.0.0.0 Safari/537.36 Edg/135.0.0.0" version="26.2.12">
  <diagram name="第 1 页" id="loDku1djv3z8DRQJNhsw">
    <mxGraphModel dx="1948" dy="892" grid="0" gridSize="10" guides="1" tooltips="1" connect="1" arrows="1" fold="1" page="0" pageScale="1" pageWidth="827" pageHeight="1169" math="0" shadow="0">
      <root>
        <mxCell id="0" />
        <mxCell id="1" parent="0" />
        <mxCell id="ghShfp2ML48da8gN1WAk-45" value="" style="rounded=0;whiteSpace=wrap;html=1;fillColor=#F5F6FA;fontColor=#ffffff;strokeColor=none;" vertex="1" parent="1">
          <mxGeometry x="-116" y="13" width="1142" height="596" as="geometry" />
        </mxCell>
        <mxCell id="ghShfp2ML48da8gN1WAk-5" value="" style="edgeStyle=orthogonalEdgeStyle;rounded=0;orthogonalLoop=1;jettySize=auto;html=1;curved=0;fillColor=#1ba1e2;strokeColor=#1BA1E2;strokeWidth=2;opacity=80;" edge="1" parent="1" target="ghShfp2ML48da8gN1WAk-4">
          <mxGeometry relative="1" as="geometry">
            <mxPoint x="9.5" y="220" as="sourcePoint" />
            <mxPoint x="289.5" y="220" as="targetPoint" />
            <Array as="points">
              <mxPoint x="10" y="221" />
            </Array>
          </mxGeometry>
        </mxCell>
        <mxCell id="ghShfp2ML48da8gN1WAk-6" value="applicationEventPublisher.publishEvent(users)" style="edgeLabel;html=1;align=center;verticalAlign=middle;resizable=0;points=[];" vertex="1" connectable="0" parent="ghShfp2ML48da8gN1WAk-5">
          <mxGeometry x="137" y="3" relative="1" as="geometry">
            <mxPoint x="-18" y="-12" as="offset" />
          </mxGeometry>
        </mxCell>
        <mxCell id="ghShfp2ML48da8gN1WAk-3" value=":UserService" style="shape=umlLifeline;perimeter=lifelinePerimeter;whiteSpace=wrap;html=1;container=1;dropTarget=0;collapsible=0;recursiveResize=0;outlineConnect=0;portConstraint=eastwest;newEdgeStyle={&quot;curved&quot;:0,&quot;rounded&quot;:0};fillColor=#1ba1e2;fontColor=#ffffff;strokeColor=#1BA1E2;strokeWidth=2;" vertex="1" parent="1">
          <mxGeometry x="-80" y="80" width="180" height="520" as="geometry" />
        </mxCell>
        <mxCell id="ghShfp2ML48da8gN1WAk-4" value=":GenericWebApplicationContext" style="shape=umlLifeline;perimeter=lifelinePerimeter;whiteSpace=wrap;html=1;container=1;dropTarget=0;collapsible=0;recursiveResize=0;outlineConnect=0;portConstraint=eastwest;newEdgeStyle={&quot;curved&quot;:0,&quot;rounded&quot;:0};fillColor=#CE8D66;strokeColor=#CE8D66;strokeWidth=2;" vertex="1" parent="1">
          <mxGeometry x="200" y="80" width="180" height="520" as="geometry" />
        </mxCell>
        <mxCell id="ghShfp2ML48da8gN1WAk-33" value="" style="html=1;points=[[0,0,0,0,5],[0,1,0,0,-5],[1,0,0,0,5],[1,1,0,0,-5]];perimeter=orthogonalPerimeter;outlineConnect=0;targetShapes=umlLifeline;portConstraint=eastwest;newEdgeStyle={&quot;curved&quot;:0,&quot;rounded&quot;:0};fillColor=#1ba1e2;fontColor=#ffffff;strokeColor=#006EAF;" vertex="1" parent="ghShfp2ML48da8gN1WAk-4">
          <mxGeometry x="85" y="120" width="10" height="340" as="geometry" />
        </mxCell>
        <mxCell id="ghShfp2ML48da8gN1WAk-34" value="" style="html=1;points=[[0,0,0,0,5],[0,1,0,0,-5],[1,0,0,0,5],[1,1,0,0,-5]];perimeter=orthogonalPerimeter;outlineConnect=0;targetShapes=umlLifeline;portConstraint=eastwest;newEdgeStyle={&quot;curved&quot;:0,&quot;rounded&quot;:0};fillColor=#CE8D66;fontColor=#000000;strokeColor=#C73500;" vertex="1" parent="ghShfp2ML48da8gN1WAk-4">
          <mxGeometry x="90" y="170" width="10" height="40" as="geometry" />
        </mxCell>
        <mxCell id="ghShfp2ML48da8gN1WAk-35" value="&lt;b&gt;&lt;font style=&quot;font-size: 12px;&quot;&gt;1. 若发送事件非ApplicationEvent实例，则&lt;/font&gt;&lt;/b&gt;&lt;div&gt;&lt;b&gt;&lt;font style=&quot;font-size: 12px;&quot;&gt;将其包装成PayloadApplicationEvent&lt;/font&gt;&lt;/b&gt;&lt;/div&gt;" style="html=1;align=left;spacingLeft=2;endArrow=block;rounded=0;edgeStyle=orthogonalEdgeStyle;curved=0;rounded=0;strokeColor=#CE8D66;strokeWidth=2;" edge="1" target="ghShfp2ML48da8gN1WAk-34" parent="ghShfp2ML48da8gN1WAk-4">
          <mxGeometry x="0.0824" y="23" relative="1" as="geometry">
            <mxPoint x="95" y="150" as="sourcePoint" />
            <Array as="points">
              <mxPoint x="125" y="180" />
            </Array>
            <mxPoint as="offset" />
          </mxGeometry>
        </mxCell>
        <mxCell id="ghShfp2ML48da8gN1WAk-40" value="&lt;font style=&quot;font-size: 12px;&quot;&gt;&lt;b&gt;3. 调用事件监听器&lt;/b&gt;&lt;/font&gt;" style="html=1;verticalAlign=bottom;endArrow=block;curved=0;rounded=0;entryX=0;entryY=0;entryDx=0;entryDy=5;fillColor=#1ba1e2;strokeColor=#1BA1E2;strokeWidth=2;align=left;" edge="1" target="ghShfp2ML48da8gN1WAk-39" parent="ghShfp2ML48da8gN1WAk-4">
          <mxGeometry x="-0.8032" y="7" relative="1" as="geometry">
            <mxPoint x="90" y="365" as="sourcePoint" />
            <mxPoint as="offset" />
          </mxGeometry>
        </mxCell>
        <mxCell id="ghShfp2ML48da8gN1WAk-41" value="return" style="html=1;verticalAlign=bottom;endArrow=open;dashed=1;endSize=8;curved=0;rounded=0;exitX=0;exitY=1;exitDx=0;exitDy=-5;strokeWidth=2;strokeColor=#636E72;" edge="1" source="ghShfp2ML48da8gN1WAk-39" parent="ghShfp2ML48da8gN1WAk-4">
          <mxGeometry x="0.4872" y="-5" relative="1" as="geometry">
            <mxPoint x="90" y="435" as="targetPoint" />
            <mxPoint as="offset" />
          </mxGeometry>
        </mxCell>
        <mxCell id="ghShfp2ML48da8gN1WAk-13" value=":SimpleApplicationEventMulticaster" style="shape=umlLifeline;perimeter=lifelinePerimeter;whiteSpace=wrap;html=1;container=1;dropTarget=0;collapsible=0;recursiveResize=0;outlineConnect=0;portConstraint=eastwest;newEdgeStyle={&quot;curved&quot;:0,&quot;rounded&quot;:0};fillColor=#CE8D66;strokeColor=#CE8D66;strokeWidth=2;" vertex="1" parent="1">
          <mxGeometry x="502" y="78" width="220" height="520" as="geometry" />
        </mxCell>
        <mxCell id="ghShfp2ML48da8gN1WAk-36" value="" style="html=1;points=[[0,0,0,0,5],[0,1,0,0,-5],[1,0,0,0,5],[1,1,0,0,-5]];perimeter=orthogonalPerimeter;outlineConnect=0;targetShapes=umlLifeline;portConstraint=eastwest;newEdgeStyle={&quot;curved&quot;:0,&quot;rounded&quot;:0};fillColor=#CE8D66;strokeColor=none;" vertex="1" parent="ghShfp2ML48da8gN1WAk-13">
          <mxGeometry x="105" y="240" width="10" height="80" as="geometry" />
        </mxCell>
        <mxCell id="ghShfp2ML48da8gN1WAk-21" value=":UserEventListener" style="shape=umlLifeline;perimeter=lifelinePerimeter;whiteSpace=wrap;html=1;container=1;dropTarget=0;collapsible=0;recursiveResize=0;outlineConnect=0;portConstraint=eastwest;newEdgeStyle={&quot;curved&quot;:0,&quot;rounded&quot;:0};fillColor=#1BA1E2;fontColor=#ffffff;strokeColor=#1BA1E2;strokeWidth=2;gradientColor=none;labelBackgroundColor=none;labelBorderColor=none;textShadow=0;" vertex="1" parent="1">
          <mxGeometry x="825" y="78" width="160" height="520" as="geometry" />
        </mxCell>
        <mxCell id="ghShfp2ML48da8gN1WAk-39" value="" style="html=1;points=[[0,0,0,0,5],[0,1,0,0,-5],[1,0,0,0,5],[1,1,0,0,-5]];perimeter=orthogonalPerimeter;outlineConnect=0;targetShapes=umlLifeline;portConstraint=eastwest;newEdgeStyle={&quot;curved&quot;:0,&quot;rounded&quot;:0};fillColor=#1ba1e2;fontColor=#ffffff;strokeColor=#006EAF;" vertex="1" parent="ghShfp2ML48da8gN1WAk-21">
          <mxGeometry x="75" y="360" width="10" height="80" as="geometry" />
        </mxCell>
        <mxCell id="ghShfp2ML48da8gN1WAk-37" value="&lt;b&gt;&lt;font style=&quot;font-size: 12px;&quot;&gt;2. 获取事件监听器&lt;/font&gt;&lt;/b&gt;" style="html=1;verticalAlign=bottom;endArrow=block;curved=0;rounded=0;entryX=0;entryY=0;entryDx=0;entryDy=5;strokeWidth=2;fillColor=#1ba1e2;strokeColor=#1BA1E2;opacity=80;align=left;" edge="1" target="ghShfp2ML48da8gN1WAk-36" parent="1" source="ghShfp2ML48da8gN1WAk-33">
          <mxGeometry x="-0.6538" y="6" relative="1" as="geometry">
            <mxPoint x="300" y="325" as="sourcePoint" />
            <mxPoint as="offset" />
          </mxGeometry>
        </mxCell>
        <mxCell id="ghShfp2ML48da8gN1WAk-38" value="return" style="html=1;verticalAlign=bottom;endArrow=open;dashed=1;endSize=8;curved=0;rounded=0;exitX=0;exitY=1;exitDx=0;exitDy=-5;strokeWidth=2;strokeColor=#636E72;" edge="1" source="ghShfp2ML48da8gN1WAk-36" parent="1" target="ghShfp2ML48da8gN1WAk-4">
          <mxGeometry relative="1" as="geometry">
            <mxPoint x="420" y="375" as="targetPoint" />
          </mxGeometry>
        </mxCell>
        <mxCell id="ghShfp2ML48da8gN1WAk-42" value="return" style="html=1;verticalAlign=bottom;endArrow=open;dashed=1;endSize=8;curved=0;rounded=0;strokeColor=#636E72;strokeWidth=2;" edge="1" parent="1" target="ghShfp2ML48da8gN1WAk-3">
          <mxGeometry relative="1" as="geometry">
            <mxPoint x="280" y="530" as="sourcePoint" />
            <mxPoint x="200" y="530" as="targetPoint" />
          </mxGeometry>
        </mxCell>
        <mxCell id="ghShfp2ML48da8gN1WAk-47" value="Spring 事件处理主流程" style="text;html=1;align=left;verticalAlign=middle;whiteSpace=wrap;rounded=0;fontStyle=1;fontSize=16;" vertex="1" parent="1">
          <mxGeometry x="-109" y="23" width="298" height="30" as="geometry" />
        </mxCell>
      </root>
    </mxGraphModel>
  </diagram>
</mxfile>
